<svg width="52" height="52" viewBox="0 0 52 52" fill="none" xmlns="http://www.w3.org/2000/svg">
<mask id="mask0_27_389" style="mask-type:luminance" maskUnits="userSpaceOnUse" x="0" y="0" width="52" height="52">
<path d="M52 0H0V52H52V0Z" fill="white"/>
</mask>
<g mask="url(#mask0_27_389)">
<path d="M26 52C40.3594 52 52 40.3594 52 26C52 11.6406 40.3594 0 26 0C11.6406 0 0 11.6406 0 26C0 40.3594 11.6406 52 26 52Z" fill="#0A0F16"/>
<path d="M29.6157 13.9092V19.3286H35.0352" stroke="white" stroke-width="2.5" stroke-linecap="round" stroke-linejoin="round"/>
<path d="M31.1639 32.4901H34.2607C34.466 32.4901 34.663 32.4085 34.8081 32.2633C34.9533 32.1181 35.0349 31.9212 35.0349 31.7159V19.3286L29.6154 13.9092H20.325C20.1197 13.9092 19.9228 13.9908 19.7776 14.1359C19.6324 14.2811 19.5508 14.4781 19.5508 14.6834V23.1996" stroke="white" stroke-width="2.5" stroke-linecap="round" stroke-linejoin="round"/>
<path d="M22.3172 36.5576C25.281 36.5576 27.6837 34.1549 27.6837 31.1911C27.6837 28.2272 25.281 25.8246 22.3172 25.8246C19.3533 25.8246 16.9507 28.2272 16.9507 31.1911C16.9507 34.1549 19.3533 36.5576 22.3172 36.5576Z" stroke="white" stroke-width="2.5" stroke-linecap="round" stroke-linejoin="round"/>
<path d="M26.1118 34.9861L29.2167 38.091" stroke="white" stroke-width="2.5" stroke-linecap="round" stroke-linejoin="round"/>
</g>
</svg>
