<svg width="52" height="52" viewBox="0 0 52 52" fill="none" xmlns="http://www.w3.org/2000/svg">
<mask id="mask0_24_323" style="mask-type:luminance" maskUnits="userSpaceOnUse" x="0" y="0" width="52" height="52">
<path d="M52 0H0V52H52V0Z" fill="white"/>
</mask>
<g mask="url(#mask0_24_323)">
<path d="M26 52C40.3594 52 52 40.3594 52 26C52 11.6406 40.3594 0 26 0C11.6406 0 0 11.6406 0 26C0 40.3594 11.6406 52 26 52Z" fill="white"/>
<path fill-rule="evenodd" clip-rule="evenodd" d="M25.1986 13.3193C25.6433 12.8936 26.3567 12.8936 26.8015 13.3193L39.6587 25.6251C40.1086 26.0557 40.1145 26.7598 39.672 27.1976C39.2293 27.6354 38.5057 27.6412 38.0558 27.2105L36.4762 25.6987V36.0734C36.4762 36.5851 36.0499 37 35.5238 37H16.4762C15.9502 37 15.5238 36.5851 15.5238 36.0734V25.6987L13.9443 27.2105C13.4944 27.6412 12.7708 27.6354 12.3281 27.1976C11.8855 26.7598 11.8914 26.0557 12.3414 25.6251L25.1986 13.3193ZM26 15.6718L34.5714 23.8756V35.1467H30.7619V28.6602C30.7619 28.1485 30.3355 27.7336 29.8095 27.7336H24.0952C23.5693 27.7336 23.1429 28.1485 23.1429 28.6602V35.1467H17.4286V23.8756L26 15.6718ZM25.0476 35.1467H28.8572V29.5869H25.0476V35.1467Z" fill="#0A0F16"/>
</g>
</svg>
