<svg width="36" height="36" viewBox="0 0 36 36" fill="none" xmlns="http://www.w3.org/2000/svg">
<rect width="36" height="36" rx="4" fill="white"/>
<g clip-path="url(#clip0_27_137)">
<path d="M15.1531 10.7685C14.9125 10.1872 14.2781 9.87785 13.6719 10.0435L10.9219 10.7935C10.3781 10.9435 10 11.4372 10 11.9997C10 19.731 16.2688 25.9997 24 25.9997C24.5625 25.9997 25.0563 25.6216 25.2063 25.0779L25.9563 22.3279C26.1219 21.7216 25.8125 21.0872 25.2312 20.8466L22.2312 19.5966C21.7219 19.3841 21.1313 19.531 20.7844 19.9591L19.5219 21.4997C17.3219 20.4591 15.5406 18.6779 14.5 16.4779L16.0406 15.2185C16.4688 14.8685 16.6156 14.281 16.4031 13.7716L15.1531 10.7716V10.7685Z" fill="#0A0F16"/>
</g>
<defs>
<clipPath id="clip0_27_137">
<rect width="16" height="16" fill="white" transform="translate(10 10)"/>
</clipPath>
</defs>
</svg>
