<svg width="135" height="225" viewBox="0 0 135 225" fill="none" xmlns="http://www.w3.org/2000/svg">
<path d="M15 157.5C15 161.642 11.6421 165 7.5 165C3.35786 165 0 161.642 0 157.5C0 153.358 3.35786 150 7.5 150C11.6421 150 15 153.358 15 157.5Z" fill="#FBE4D7"/>
<path d="M15 187.5C15 191.642 11.6421 195 7.5 195C3.35786 195 0 191.642 0 187.5C0 183.358 3.35786 180 7.5 180C11.6421 180 15 183.358 15 187.5Z" fill="#FBE4D7"/>
<path d="M15 217.5C15 221.642 11.6421 225 7.5 225C3.35786 225 0 221.642 0 217.5C0 213.358 3.35786 210 7.5 210C11.6421 210 15 213.358 15 217.5Z" fill="#FBE4D7"/>
<path d="M45 127.5C45 131.642 41.6421 135 37.5 135C33.3579 135 30 131.642 30 127.5C30 123.358 33.3579 120 37.5 120C41.6421 120 45 123.358 45 127.5Z" fill="#FBE4D7"/>
<path d="M45 157.5C45 161.642 41.6421 165 37.5 165C33.3579 165 30 161.642 30 157.5C30 153.358 33.3579 150 37.5 150C41.6421 150 45 153.358 45 157.5Z" fill="#FBE4D7"/>
<path d="M45 187.5C45 191.642 41.6421 195 37.5 195C33.3579 195 30 191.642 30 187.5C30 183.358 33.3579 180 37.5 180C41.6421 180 45 183.358 45 187.5Z" fill="#FBE4D7"/>
<path d="M45 217.5C45 221.642 41.6421 225 37.5 225C33.3579 225 30 221.642 30 217.5C30 213.358 33.3579 210 37.5 210C41.6421 210 45 213.358 45 217.5Z" fill="#FBE4D7"/>
<path d="M75 157.5C75 161.642 71.6421 165 67.5 165C63.3579 165 60 161.642 60 157.5C60 153.358 63.3579 150 67.5 150C71.6421 150 75 153.358 75 157.5Z" fill="#FBE4D7"/>
<path d="M75 187.5C75 191.642 71.6421 195 67.5 195C63.3579 195 60 191.642 60 187.5C60 183.358 63.3579 180 67.5 180C71.6421 180 75 183.358 75 187.5Z" fill="#FBE4D7"/>
<path d="M75 217.5C75 221.642 71.6421 225 67.5 225C63.3579 225 60 221.642 60 217.5C60 213.358 63.3579 210 67.5 210C71.6421 210 75 213.358 75 217.5Z" fill="#FBE4D7"/>
<path d="M105 67.5C105 71.6421 101.642 75 97.5 75C93.3579 75 90 71.6421 90 67.5C90 63.3579 93.3579 60 97.5 60C101.642 60 105 63.3579 105 67.5Z" fill="#FBE4D7"/>
<path d="M105 97.5C105 101.642 101.642 105 97.5 105C93.3579 105 90 101.642 90 97.5C90 93.3579 93.3579 90 97.5 90C101.642 90 105 93.3579 105 97.5Z" fill="#FBE4D7"/>
<path d="M105 127.5C105 131.642 101.642 135 97.5 135C93.3579 135 90 131.642 90 127.5C90 123.358 93.3579 120 97.5 120C101.642 120 105 123.358 105 127.5Z" fill="#FBE4D7"/>
<path d="M105 157.5C105 161.642 101.642 165 97.5 165C93.3579 165 90 161.642 90 157.5C90 153.358 93.3579 150 97.5 150C101.642 150 105 153.358 105 157.5Z" fill="#FBE4D7"/>
<path d="M105 187.5C105 191.642 101.642 195 97.5 195C93.3579 195 90 191.642 90 187.5C90 183.358 93.3579 180 97.5 180C101.642 180 105 183.358 105 187.5Z" fill="#FBE4D7"/>
<path d="M105 217.5C105 221.642 101.642 225 97.5 225C93.3579 225 90 221.642 90 217.5C90 213.358 93.3579 210 97.5 210C101.642 210 105 213.358 105 217.5Z" fill="#FBE4D7"/>
<path d="M135 7.5C135 11.6421 131.642 15 127.5 15C123.358 15 120 11.6421 120 7.5C120 3.35786 123.358 0 127.5 0C131.642 0 135 3.35786 135 7.5Z" fill="#FBE4D7"/>
<path d="M135 37.5C135 41.6421 131.642 45 127.5 45C123.358 45 120 41.6421 120 37.5C120 33.3579 123.358 30 127.5 30C131.642 30 135 33.3579 135 37.5Z" fill="#FBE4D7"/>
<path d="M135 67.5C135 71.6421 131.642 75 127.5 75C123.358 75 120 71.6421 120 67.5C120 63.3579 123.358 60 127.5 60C131.642 60 135 63.3579 135 67.5Z" fill="#FBE4D7"/>
<path d="M135 97.5C135 101.642 131.642 105 127.5 105C123.358 105 120 101.642 120 97.5C120 93.3579 123.358 90 127.5 90C131.642 90 135 93.3579 135 97.5Z" fill="#FBE4D7"/>
<path d="M135 127.5C135 131.642 131.642 135 127.5 135C123.358 135 120 131.642 120 127.5C120 123.358 123.358 120 127.5 120C131.642 120 135 123.358 135 127.5Z" fill="#FBE4D7"/>
<path d="M135 157.5C135 161.642 131.642 165 127.5 165C123.358 165 120 161.642 120 157.5C120 153.358 123.358 150 127.5 150C131.642 150 135 153.358 135 157.5Z" fill="#FBE4D7"/>
<path d="M135 187.5C135 191.642 131.642 195 127.5 195C123.358 195 120 191.642 120 187.5C120 183.358 123.358 180 127.5 180C131.642 180 135 183.358 135 187.5Z" fill="#FBE4D7"/>
<path d="M135 217.5C135 221.642 131.642 225 127.5 225C123.358 225 120 221.642 120 217.5C120 213.358 123.358 210 127.5 210C131.642 210 135 213.358 135 217.5Z" fill="#FBE4D7"/>
</svg>
