<?xml version="1.0" standalone="no"?>
<!DOCTYPE svg PUBLIC "-//W3C//DTD SVG 20010904//EN"
 "http://www.w3.org/TR/2001/REC-SVG-20010904/DTD/svg10.dtd">
<svg version="1.0" xmlns="http://www.w3.org/2000/svg"
 width="700.000000pt" height="700.000000pt" viewBox="0 0 700.000000 700.000000"
 preserveAspectRatio="xMidYMid meet">
<metadata>
Created by potrace 1.14, written by Peter Selinger 2001-2017
</metadata>
<g transform="translate(0.000000,700.000000) scale(0.100000,-0.100000)"
fill="#000000" stroke="none">
<path d="M6370 6981 c-94 -26 -146 -57 -220 -131 -130 -128 -178 -303 -132
-477 57 -213 236 -358 457 -369 229 -12 409 114 505 351 18 45 21 201 4 265
-43 167 -183 314 -344 361 -69 20 -200 20 -270 0z"/>
<path d="M4895 5738 c-187 -35 -352 -207 -385 -401 -53 -304 180 -585 485
-585 217 0 402 130 476 334 17 46 22 81 22 164 0 83 -5 118 -22 164 -73 202
-268 339 -474 335 -29 -1 -74 -6 -102 -11z"/>
<path d="M6377 5484 c-133 -34 -268 -145 -326 -266 -92 -195 -55 -413 97 -567
106 -107 221 -152 372 -146 144 5 262 61 354 167 88 103 121 191 120 328 0
114 -19 184 -73 267 -117 181 -339 270 -544 217z"/>
<path d="M4882 4235 c-96 -27 -164 -66 -233 -134 -161 -161 -192 -386 -83
-601 29 -58 145 -165 215 -198 302 -143 653 36 709 361 45 257 -114 505 -366
571 -68 18 -179 18 -242 1z"/>
<path d="M1885 3986 c-162 -40 -301 -165 -356 -322 -64 -180 -18 -374 121
-515 105 -106 228 -153 381 -145 251 14 445 206 466 461 18 223 -126 437 -342
510 -63 21 -205 27 -270 11z"/>
<path d="M3380 3984 c-220 -59 -368 -240 -376 -461 -6 -182 70 -334 218 -436
200 -138 484 -103 645 78 62 69 96 133 116 215 42 177 -4 340 -131 469 -129
129 -305 180 -472 135z"/>
<path d="M6390 3986 c-90 -19 -169 -64 -241 -136 -198 -198 -198 -502 1 -700
94 -94 196 -140 325 -146 148 -8 272 40 375 145 72 73 103 126 130 218 24 83
20 216 -9 297 -86 240 -332 377 -581 322z"/>
<path d="M385 2485 c-160 -35 -299 -161 -357 -322 -26 -73 -32 -215 -11 -288
51 -181 202 -326 376 -363 281 -59 555 129 599 412 25 162 -25 312 -143 428
-127 126 -288 172 -464 133z"/>
<path d="M1928 2495 c-2 -2 -20 -6 -41 -9 -100 -16 -243 -117 -307 -216 -120
-187 -97 -448 54 -608 196 -209 517 -214 716 -13 94 95 135 185 146 316 13
144 -38 278 -146 385 -73 74 -137 110 -231 133 -55 13 -181 21 -191 12z"/>
<path d="M3383 2485 c-76 -17 -156 -60 -218 -117 -218 -199 -216 -542 4 -740
188 -169 478 -168 665 2 213 195 221 517 17 721 -126 126 -293 174 -468 134z"/>
<path d="M4883 2486 c-130 -32 -274 -145 -325 -256 -50 -110 -53 -123 -53
-230 0 -85 4 -116 22 -162 65 -168 187 -279 358 -325 39 -11 171 -12 220 -1
89 18 175 66 246 137 256 256 166 682 -173 817 -75 30 -214 39 -295 20z"/>
<path d="M6382 2485 c-179 -41 -334 -203 -372 -390 -25 -121 7 -274 80 -380
96 -140 271 -224 441 -212 440 32 629 568 305 865 -123 112 -289 154 -454 117z"/>
<path d="M380 984 c-179 -48 -318 -188 -366 -366 -16 -64 -11 -205 10 -271 51
-158 200 -295 362 -333 72 -16 206 -11 269 11 125 43 240 144 294 258 128 269
-4 588 -285 688 -76 27 -209 33 -284 13z"/>
<path d="M1885 986 c-130 -31 -271 -141 -328 -256 -100 -200 -62 -430 97 -586
102 -100 224 -146 370 -140 360 15 578 388 421 721 -52 109 -177 216 -293 251
-71 21 -201 26 -267 10z"/>
<path d="M3385 985 c-70 -17 -99 -30 -160 -71 -212 -140 -281 -398 -171 -639
49 -105 186 -220 306 -255 61 -18 173 -23 235 -10 195 39 355 199 395 393 14
69 7 187 -16 254 -82 243 -342 388 -589 328z"/>
<path d="M4883 986 c-84 -21 -163 -67 -234 -136 -71 -70 -108 -136 -134 -235
-76 -296 149 -597 455 -610 159 -7 274 37 381 145 106 108 156 238 146 381
-16 208 -151 384 -343 445 -64 20 -206 25 -271 10z"/>
<path d="M6380 984 c-216 -58 -360 -231 -377 -453 -17 -235 150 -462 379 -516
77 -18 219 -13 273 10 96 39 134 63 197 127 106 106 151 223 144 375 -10 211
-145 382 -356 453 -55 18 -197 20 -260 4z"/>
</g>
</svg>
