<svg width="52" height="52" viewBox="0 0 52 52" fill="none" xmlns="http://www.w3.org/2000/svg">
<g clip-path="url(#clip0_27_326)">
<path d="M26 52C40.3594 52 52 40.3594 52 26C52 11.6406 40.3594 0 26 0C11.6406 0 0 11.6406 0 26C0 40.3594 11.6406 52 26 52Z" fill="#0A0F16"/>
<path d="M34.6273 22.9829H17.3753C16.8989 22.9829 16.5127 23.3689 16.5127 23.845V35.9135C16.5127 36.3897 16.8989 36.7756 17.3753 36.7756H34.6273C35.1036 36.7756 35.4898 36.3897 35.4898 35.9135V23.845C35.4898 23.3689 35.1036 22.9829 34.6273 22.9829Z" stroke="white" stroke-width="2.5" stroke-linecap="round" stroke-linejoin="round"/>
<path d="M22.1182 22.9829V19.1037C22.1182 18.0748 22.5271 17.0882 23.2551 16.3607C23.9831 15.6332 24.9704 15.2245 25.9998 15.2245C27.0294 15.2245 28.0167 15.6332 28.7446 16.3607C29.4726 17.0882 29.8816 18.0748 29.8816 19.1037" stroke="white" stroke-width="2.5" stroke-linecap="round" stroke-linejoin="round"/>
<path d="M26.0009 31.1722C26.7156 31.1722 27.2949 30.5933 27.2949 29.8791C27.2949 29.165 26.7156 28.5861 26.0009 28.5861C25.2863 28.5861 24.707 29.165 24.707 29.8791C24.707 30.5933 25.2863 31.1722 26.0009 31.1722Z" fill="white"/>
</g>
<defs>
<clipPath id="clip0_27_326">
<rect width="52" height="52" fill="white"/>
</clipPath>
</defs>
</svg>
