<svg width="36" height="36" viewBox="0 0 36 36" fill="none" xmlns="http://www.w3.org/2000/svg">
<rect width="36" height="36" rx="4" fill="white"/>
<path d="M11.5 12C10.6719 12 10 12.6719 10 13.5C10 13.9719 10.2219 14.4156 10.6 14.7L17.4 19.8C17.7562 20.0656 18.2438 20.0656 18.6 19.8L25.4 14.7C25.7781 14.4156 26 13.9719 26 13.5C26 12.6719 25.3281 12 24.5 12H11.5ZM10 15.5V22C10 23.1031 10.8969 24 12 24H24C25.1031 24 26 23.1031 26 22V15.5L19.2 20.6C18.4875 21.1344 17.5125 21.1344 16.8 20.6L10 15.5Z" fill="#0A0F16"/>
</svg>
