<svg width="52" height="52" viewBox="0 0 52 52" fill="none" xmlns="http://www.w3.org/2000/svg">
<mask id="mask0_24_305" style="mask-type:luminance" maskUnits="userSpaceOnUse" x="0" y="0" width="52" height="52">
<path d="M52 0H0V52H52V0Z" fill="white"/>
</mask>
<g mask="url(#mask0_24_305)">
<path d="M26 52C40.3594 52 52 40.3594 52 26C52 11.6406 40.3594 0 26 0C11.6406 0 0 11.6406 0 26C0 40.3594 11.6406 52 26 52Z" fill="white"/>
<path d="M31.2939 33.9182C31.2939 34.6202 31.0151 35.2935 30.5186 35.7899C30.0223 36.2863 29.349 36.5652 28.647 36.5652C27.945 36.5652 27.2716 36.2863 26.7753 35.7899C26.2789 35.2935 26 34.6202 26 33.9182V26.8596" stroke="#0A0F16" stroke-width="2" stroke-linecap="round" stroke-linejoin="round"/>
<path d="M15.4451 26.8595C15.3229 26.8602 15.2018 26.8351 15.0899 26.7858C14.9781 26.7367 14.8777 26.6645 14.7956 26.5739C14.7134 26.4834 14.6512 26.3767 14.613 26.2606C14.5747 26.1445 14.5614 26.0216 14.5738 25.9C14.8252 23.0429 16.1377 20.3837 18.2527 18.4465C20.3678 16.5093 23.1318 15.4348 25.9999 15.4348C28.868 15.4348 31.632 16.5093 33.7471 18.4465C35.8622 20.3837 37.1747 23.0429 37.426 25.9C37.4384 26.0216 37.425 26.1445 37.3868 26.2606C37.3486 26.3767 37.2864 26.4834 37.2042 26.5739C37.122 26.6645 37.0218 26.7367 36.9099 26.7858C36.7979 26.8351 36.6769 26.8602 36.5547 26.8595H15.4451Z" stroke="#0A0F16" stroke-width="2" stroke-linecap="round" stroke-linejoin="round"/>
</g>
</svg>
