<svg width="105" height="135" viewBox="0 0 105 135" fill="none" xmlns="http://www.w3.org/2000/svg">
<path d="M15 97.5C15 101.642 11.6421 105 7.5 105C3.35786 105 0 101.642 0 97.5C0 93.3579 3.35786 90 7.5 90C11.6421 90 15 93.3579 15 97.5Z" fill="#E6E2E1"/>
<path d="M15 127.5C15 131.642 11.6421 135 7.5 135C3.35786 135 0 131.642 0 127.5C0 123.358 3.35786 120 7.5 120C11.6421 120 15 123.358 15 127.5Z" fill="#E6E2E1"/>
<path d="M45 67.5C45 71.6421 41.6421 75 37.5 75C33.3579 75 30 71.6421 30 67.5C30 63.3579 33.3579 60 37.5 60C41.6421 60 45 63.3579 45 67.5Z" fill="#E6E2E1"/>
<path d="M45 97.5C45 101.642 41.6421 105 37.5 105C33.3579 105 30 101.642 30 97.5C30 93.3579 33.3579 90 37.5 90C41.6421 90 45 93.3579 45 97.5Z" fill="#E6E2E1"/>
<path d="M45 127.5C45 131.642 41.6421 135 37.5 135C33.3579 135 30 131.642 30 127.5C30 123.358 33.3579 120 37.5 120C41.6421 120 45 123.358 45 127.5Z" fill="#E6E2E1"/>
<path d="M75 7.5C75 11.6421 71.6421 15 67.5 15C63.3579 15 60 11.6421 60 7.5C60 3.35786 63.3579 0 67.5 0C71.6421 0 75 3.35786 75 7.5Z" fill="#E6E2E1"/>
<path d="M75 37.5C75 41.6421 71.6421 45 67.5 45C63.3579 45 60 41.6421 60 37.5C60 33.3579 63.3579 30 67.5 30C71.6421 30 75 33.3579 75 37.5Z" fill="#E6E2E1"/>
<path d="M75 67.5C75 71.6421 71.6421 75 67.5 75C63.3579 75 60 71.6421 60 67.5C60 63.3579 63.3579 60 67.5 60C71.6421 60 75 63.3579 75 67.5Z" fill="#E6E2E1"/>
<path d="M75 97.5C75 101.642 71.6421 105 67.5 105C63.3579 105 60 101.642 60 97.5C60 93.3579 63.3579 90 67.5 90C71.6421 90 75 93.3579 75 97.5Z" fill="#E6E2E1"/>
<path d="M75 127.5C75 131.642 71.6421 135 67.5 135C63.3579 135 60 131.642 60 127.5C60 123.358 63.3579 120 67.5 120C71.6421 120 75 123.358 75 127.5Z" fill="#E6E2E1"/>
<path d="M105 7.5C105 11.6421 101.642 15 97.5 15C93.3579 15 90 11.6421 90 7.5C90 3.35786 93.3579 0 97.5 0C101.642 0 105 3.35786 105 7.5Z" fill="#E6E2E1"/>
<path d="M105 37.5C105 41.6421 101.642 45 97.5 45C93.3579 45 90 41.6421 90 37.5C90 33.3579 93.3579 30 97.5 30C101.642 30 105 33.3579 105 37.5Z" fill="#E6E2E1"/>
<path d="M105 67.5C105 71.6421 101.642 75 97.5 75C93.3579 75 90 71.6421 90 67.5C90 63.3579 93.3579 60 97.5 60C101.642 60 105 63.3579 105 67.5Z" fill="#E6E2E1"/>
<path d="M105 97.5C105 101.642 101.642 105 97.5 105C93.3579 105 90 101.642 90 97.5C90 93.3579 93.3579 90 97.5 90C101.642 90 105 93.3579 105 97.5Z" fill="#E6E2E1"/>
<path d="M105 127.5C105 131.642 101.642 135 97.5 135C93.3579 135 90 131.642 90 127.5C90 123.358 93.3579 120 97.5 120C101.642 120 105 123.358 105 127.5Z" fill="#E6E2E1"/>
</svg>
